PathFileType	4	(X/Y/Z)	4_coords_data.trc
DataRate	CameraRate	NumFrames	NumMarkers	Units	OrigDataRate	OrigDataStartFrame	OrigNumFrames
30.0	30.0	5	21	m	30.0	21	51
Frame#	Time	THUMB_TIP	THUMB_IP	THUMB_MCP	THUMB_CMC	INDEX_TIP	INDEX_DIP	INDEX_PIP	INDEX_MCP	MIDDLE_TIP	MIDDLE_DIP	MIDDLE_PIP	MIDDLE_MCP	RING_TIP	RING_DIP	RING_PIP	RING_MCP	PINKY_TIP	PINKY_DIP	PINKY_PIP	PINKY_MCP	WRIST
X1	Y1	Z1	X2	Y2	Z2	X3	Y3	Z3	X4	Y4	Z4	X5	Y5	Z5	X6	Y6	Z6	X7	Y7	Z7	X8	Y8	Z8	X9	Y9	Z9	X10	Y10	Z10	X11	Y11	Z11	X12	Y12	Z12	X13	Y13	Z13	X14	Y14	Z14	X15	Y15	Z15	X16	Y16	Z16	X17	Y17	Z17	X18	Y18	Z18	X19	Y19	Z19	X20	Y20	Z20	X21	Y21	Z21
20	0.6666666666666666	-0.01939579963684082	-0.04722909927368164	1.010780029296875	-0.03332849884033203	-0.047050399780273436	1.0365899658203126	-0.04682469940185547	-0.054608001708984374	1.0680699462890626	-0.06529219818115234	-0.03266899871826172	1.0913299560546874	-0.01651140022277832	-0.03258760070800781	0.9849719848632813	-0.03695750045776367	-0.040716701507568356	0.992405029296875	-0.05969889831542969	-0.04868230056762695	1.004	-0.09109559631347657	-0.05867050170898438	1.0343499755859376	-0.009823049545288086	-0.014175299644470216	0.9831229858398437	-0.03288159942626953	-0.0186072998046875	0.9898610229492187	-0.06224449920654297	-0.024409900665283202	1.00002001953125	-0.09847519683837891	-0.03351089859008789	1.030489990234375	-0.00735522985458374	0.003678529977798462	1.00197998046875	-0.030734100341796876	0.0045101199150085446	1.000739990234375	-0.06091109848022461	0.002624769926071167	1.003239990234375	-0.094831298828125	-0.0085834903717041	1.0336199951171876	-0.025556499481201173	0.013508000373840333	1.020760009765625	-0.04320149993896484	0.020315799713134765	1.0180900268554687	-0.06461409759521484	0.024382400512695312	1.0186199951171875	-0.08883380126953125	0.014782699584960937	1.040489990234375	-0.0981270980834961	-0.016746700286865233	1.11725
21	0.7	-0.01900670051574707	-0.04703580093383789	1.010739990234375	-0.033031898498535155	-0.046938701629638674	1.0367900390625	-0.04642959976196289	-0.05455080032348633	1.0676700439453124	-0.06490019989013672	-0.0325077018737793	1.0911300048828125	-0.015799400329589843	-0.03222669982910156	0.9854349975585938	-0.036361499786376955	-0.04041460037231445	0.9927319946289063	-0.059227699279785155	-0.04854650115966797	1.004280029296875	-0.09086419677734375	-0.05863479995727539	1.0343699951171874	-0.009348730087280273	-0.014043700218200684	0.983573974609375	-0.03237730026245117	-0.01844890022277832	0.9900339965820313	-0.06178070068359375	-0.024312000274658203	1.0001500244140624	-0.09823829650878907	-0.03354299926757812	1.0304300537109374	-0.007087289810180664	0.003825380086898803	1.0021300048828126	-0.030418399810791016	0.0046399497985839845	1.0007000122070313	-0.06055509948730469	0.002690609931945801	1.0032000122070313	-0.09479769897460938	-0.008572050094604492	1.033239990234375	-0.02537339973449707	0.013472800254821777	1.0207899780273437	-0.04297650146484375	0.02041160011291504	1.0180599975585938	-0.06431069946289063	0.024432699203491212	1.0186500244140626	-0.08861180114746094	0.014842000007629395	1.04043994140625	-0.09787999725341796	-0.017055099487304687	1.1174599609375
22	0.7333333333333333	-0.01871750068664551	-0.04681529998779297	1.0110399780273438	-0.032698898315429686	-0.046919399261474606	1.03656005859375	-0.04618280029296875	-0.05420130157470703	1.068010009765625	-0.06456199645996094	-0.0324650993347168	1.09102001953125	-0.01522410011291504	-0.031961900711059574	0.9861160278320312	-0.035817798614501954	-0.04016579818725586	0.993197021484375	-0.05880450057983398	-0.04830030059814453	1.0044400024414062	-0.09045459747314454	-0.05857369995117188	1.0341800537109376	-0.008851329803466796	-0.013799099922180176	0.9840260009765625	-0.03192770004272461	-0.01823859977722168	0.99047900390625	-0.06144120025634765	-0.02415169906616211	1.000239990234375	-0.09792120361328124	-0.03343330001831055	1.0304000244140625	-0.006741189956665039	0.004033760070800781	1.0023099975585938	-0.030112600326538085	0.004822700023651123	1.0009400024414064	-0.06033760070800781	0.002837490081787109	1.003510009765625	-0.09437879943847656	-0.008501040458679198	1.03331005859375	-0.025133800506591798	0.013772500038146973	1.021010009765625	-0.042777999877929684	0.020562700271606445	1.018219970703125	-0.06416280364990234	0.02454280090332031	1.0185499877929687	-0.08842050170898437	0.014896100044250488	1.0405	-0.09779380035400391	-0.016934499740600586	1.117260009765625
23	0.7666666666666667	-0.018369499206542968	-0.04671739959716797	1.0110999755859376	-0.032414501190185546	-0.046690399169921876	1.036530029296875	-0.04595640182495117	-0.05430390167236328	1.0681099853515625	-0.06479180145263672	-0.03242850112915039	1.0913299560546874	-0.014657099723815918	-0.031556299209594726	0.9866339721679688	-0.035289798736572266	-0.039763999938964845	0.9935590209960937	-0.05830400085449219	-0.048021198272705075	1.0045700073242188	-0.09024559783935547	-0.05838990020751953	1.03422998046875	-0.008392009735107422	-0.013480299949645997	0.984552001953125	-0.031465299606323244	-0.017943599700927734	0.9907689819335938	-0.061009601593017576	-0.02388050079345703	1.0003300170898437	-0.09768930053710938	-0.03328390121459961	1.0303800048828125	-0.006440289974212646	0.0043314599990844724	1.00252001953125	-0.029805599212646486	0.005082310199737549	1.0010800170898437	-0.0600088005065918	0.0030695099830627443	1.0036099853515625	-0.09409459686279296	-0.008384679794311524	1.0334599609375	-0.024813800811767577	0.013931699752807617	1.02122998046875	-0.04256219863891601	0.020784400939941407	1.0183699951171874	-0.06393460083007813	0.024769599914550782	1.0186799926757812	-0.08829910278320313	0.015038399696350098	1.0404000244140625	-0.09767369842529297	-0.016683300018310546	1.1174100341796875
24	0.8	-0.01820479965209961	-0.046449199676513675	1.011239990234375	-0.032359500885009766	-0.046471199035644534	1.03677001953125	-0.04565230178833008	-0.05415610122680664	1.06772998046875	-0.06489510345458985	-0.03233290100097656	1.0916400146484375	-0.014273799896240235	-0.03119109916687012	0.9869840087890625	-0.034890201568603514	-0.03946789932250976	0.9937230224609375	-0.057882701873779294	-0.04778160095214844	1.0045700073242188	-0.09001480102539063	-0.058255401611328125	1.034300048828125	-0.007917019844055176	-0.013220399856567382	0.9850490112304687	-0.031087799072265623	-0.017683799743652345	0.990916015625	-0.06065420150756836	-0.0236476993560791	1.0004500122070312	-0.09744819641113281	-0.03313169860839844	1.029969970703125	-0.006173490047454834	0.0045775799751281735	1.0026300048828125	-0.029554899215698243	0.0053178400993347166	1.0012000122070313	-0.059725799560546876	0.0032641301155090334	1.003489990234375	-0.0939481964111328	-0.008222200393676759	1.0333399658203124	-0.02459830093383789	0.014094900131225586	1.0211599731445313	-0.04235160064697266	0.02101759910583496	1.0183499755859375	-0.06372019958496093	0.024942399978637696	1.018739990234375	-0.08812689971923827	0.015200499534606934	1.0405	-0.0975428009033203	-0.01660129928588867	1.117449951171875
